PathFileType	4	(X/Y/Z)	Patient4_TMGait_0pt3_01_left_15.trc.trc
DataRate	CameraRate	NumFrames	NumMarkers	Units	OrigDataRate	OrigDataStartFrame	OrigNumFrames
54.474708171206	54.474708171206	6	33	mm	54.474708171206	124	       141
Frame#	Time	Sacral			L.Shoulder			Chest			R.Shoulder			Neck			R.ASIS			L.ASIS			R.Thigh.Superior			R.Thigh.Lateral			R.Thigh.Inferior			R.Patella			L.Thigh.Superior			L.Thigh.Lateral			L.Thigh.Inferior			L.Patella			L.Shank.Superior			L.Shank.Lateral			L.Shank.Inferior			R.Shank.Superior			R.Shank.Lateral			R.Shank.Inferior			R.Heel			R.Midfoot.Superior			R.Midfoot.Lateral			R.Toe			L.Heel			L.Midfoot.Lateral			L.Midfoot.Superior			L.Toe			L.Elbow			L.Wrist			R.Elbow			R.Wrist			
		X1	Y1	Z1	X2	Y2	Z2	X3	Y3	Z3	X4	Y4	Z4	X5	Y5	Z5	X6	Y6	Z6	X7	Y7	Z7	X8	Y8	Z8	X9	Y9	Z9	X10	Y10	Z10	X11	Y11	Z11	X12	Y12	Z12	X13	Y13	Z13	X14	Y14	Z14	X15	Y15	Z15	X16	Y16	Z16	X17	Y17	Z17	X18	Y18	Z18	X19	Y19	Z19	X20	Y20	Z20	X21	Y21	Z21	X22	Y22	Z22	X23	Y23	Z23	X24	Y24	Z24	X25	Y25	Z25	X26	Y26	Z26	X27	Y27	Z27	X28	Y28	Z28	X29	Y29	Z29	X30	Y30	Z30	X31	Y31	Z31	X32	Y32	Z32	X33	Y33	Z33	

124	30.067928571429	794.229752196585	996.471223268741	604.971372896416	914.297399069688	1427.708263810219	401.012839547214	1044.732021242975	1368.649547281824	545.289370379162	983.685011502811	1441.915931996931	727.838038930404	920.968612838144	1491.933731134961	556.888120240035	1034.380896934576	938.991428645129	697.551513931682	993.617412685930	959.916945433753	424.481760896270	1039.178814247328	727.236492926832	662.695020354201	940.137382752695	624.723286749709	720.638637234148	1002.006107124000	566.783806041183	637.040268625574	985.018387293219	480.959462709994	637.815931491210	1068.159029111326	763.361156110336	450.037113584860	1007.922940537762	637.889182322051	373.949096792558	1108.093828555458	573.922298119282	435.189150335429	1131.132051214953	510.755196317134	432.673110868141	1114.213148491810	440.978469927736	420.588850364890	1049.595420963576	312.722094608041	364.591956160032	1136.017383390337	212.105504608653	418.614870733239	948.331684778270	394.976119478940	640.437588055201	866.082979391436	295.574378613696	697.348300503081	897.894585028023	201.235985771359	627.051262283763	750.051576332246	43.910229275074	583.341741451080	920.418481878488	96.869748925393	630.364781775435	828.662678721406	36.994396163856	662.541548592197	1037.261758678327	41.858881268681	664.915793674857	1048.370541417014	37.650573536782	451.354899901374	1124.059722769393	40.867098743947	372.921946016607	1198.282783943418	113.272456192750	397.729126449305	1330.551696101934	77.036137964752	373.190924030855	776.815323405820	1102.166241624558	317.760068625914	762.843358054280	841.520608398657	340.916717353338	1174.095689759376	1174.268689242585	856.876496627593	1406.064706070224	1266.527025161778	805.843482039992	
125	30.086285714286	794.942173662261	995.262105745097	603.791956047468	912.820604203891	1426.362729952717	398.655527474283	1044.007624052282	1367.844412495618	542.487655732112	983.368043902281	1441.096380249735	725.121757260753	919.936832510658	1490.791032214434	554.407248825015	1035.438937815963	938.271798583704	695.761574176760	993.622849518073	958.348825218786	422.773147043554	1039.395967691817	726.126547141842	661.248036488809	939.894439654437	623.959003324440	719.420857732724	1001.198404404279	565.684280237276	635.760492702246	983.462840555412	479.680428433236	636.482361423012	1067.865851638617	761.174284258249	448.022903265086	1005.578676593338	635.613927455756	373.256578598058	1106.397090072786	572.022453093833	433.627025093153	1128.590764591736	508.506806117370	431.483939760444	1111.747137828126	438.507132616843	419.562570955249	1046.066520247333	310.428015174467	364.701223776355	1132.376861412314	209.707800211220	418.511841566673	945.971582709288	393.938301026050	639.421586442224	862.987656597162	295.352709370429	696.825478384221	893.677548611708	200.667874251735	626.628746685324	744.538798903713	43.857901406524	583.378390606144	914.987898510656	96.841264190683	630.324427456525	823.138188065820	36.920925718186	662.558216280186	1031.764063094170	41.874442661704	664.918838769569	1043.405124391276	37.099134595608	452.372068706362	1118.451205640593	39.423693832084	373.208900870997	1194.119018149825	110.231377991532	397.810010645672	1325.604101962998	71.721405740783	371.991731931462	776.072358478214	1100.416305400989	316.254179975355	765.782792282453	839.391717463448	339.598746567879	1178.158631203318	1176.887617201381	852.667863038540	1406.612386373210	1275.878497278989	799.173876080752	
126	30.104642857143	795.669411093667	994.160624116777	602.454022012319	911.535647248293	1424.990785890461	396.143222031849	1043.473309451756	1367.040710264852	539.540695335353	983.273794304843	1440.346290667827	722.254900882249	919.098965382219	1489.678291300091	551.756600222441	1036.480851043118	937.467889808258	693.733769940486	993.643984416266	956.993615068883	420.892839294366	1039.655307751020	724.936900792089	659.489046190002	939.800503416264	623.110511632005	717.943318753222	1000.520162047101	564.504415412918	634.155313734696	982.079880295069	478.323398950199	634.868183780665	1067.995546935178	759.603375002735	446.154071253506	1004.370391074105	633.889849477972	372.477789965116	1105.741522498387	570.825505109737	432.215368134653	1127.041243888025	506.711591791967	430.379774469808	1110.177132373441	436.343442666315	418.570318925139	1043.170298377554	308.656370634897	364.535256140568	1128.782040035527	207.505998331242	418.415824648497	943.768875123998	392.814983392727	638.184587583840	860.022415462238	295.101625478762	696.117127442006	889.529103893194	200.044266978406	626.094865266417	739.034864301964	43.747025398810	583.408455400258	909.567871507000	96.805691868864	630.247537450296	817.620429914065	36.818945771626	662.567411150169	1026.279837747263	41.912295974386	664.923738598178	1037.798943135158	36.832252989522	453.125107662094	1112.383180487533	38.185483323541	373.404141620547	1189.516350881706	107.354077784107	397.973134246701	1320.241562961426	66.487115965193	371.184184547170	776.051208624234	1098.304498261471	314.480640038846	770.279323244617	836.951665092611	337.495112013444	1181.634292549978	1179.026519442645	848.499656655201	1406.989453310551	1283.557849145822	792.946673588310	
127	30.123000000000	796.382890554086	993.207641198646	600.923286991156	910.439572118283	1423.644141518526	393.521129602517	1043.141288749731	1366.256995463023	536.465695412290	983.455405362886	1439.680572283010	719.269923394535	918.484354892894	1488.623565400854	548.997891418875	1037.468483012906	936.585648456021	691.436600587442	993.669668242527	955.903088187105	418.801530936739	1039.841642037083	723.679345778917	657.400011118720	939.704441373141	622.218565816761	716.199587184797	999.808711442281	563.261630506576	632.230261367999	980.711569174308	476.927832932237	632.995002184212	1068.563280676829	758.726393915445	444.414250363705	1004.386409010421	632.768172533469	371.544278497968	1106.174642803404	570.335639475000	430.913779734955	1126.546153138814	505.403899862767	429.337096793756	1109.571740802788	434.548184400892	417.609716284810	1041.080116041171	307.442613945432	364.047222609263	1125.416662808912	205.589583565262	418.326706618709	941.589959422720	391.649306593608	636.742173147032	857.076859903413	294.844267015835	695.232657700183	885.382815223691	199.395371215883	625.460640230366	733.531982116186	43.583747439015	583.427329312796	904.144492067294	96.757830757718	630.126379471021	812.104085912321	36.692739800824	662.567272216949	1020.801796849972	41.964233238291	664.930504103147	1031.894686015669	36.792708536316	453.604808147383	1106.198752104729	37.204806434227	373.507930500030	1184.687694505672	104.826833911845	398.202388774508	1314.729765215283	61.751251073204	370.761106382488	776.663148883217	1095.929095624695	312.476286963589	776.237391576017	834.348116412951	334.569034731497	1184.617330742184	1180.686851133494	844.412055574777	1407.385390454601	1289.594561096588	787.155674328077	
128	30.141357142857	797.064917573093	992.422129841518	599.144509572993	909.536518891385	1422.368874017736	390.821920878220	1043.015423294613	1365.506885364793	533.281162833269	983.931342193224	1439.096089224918	716.196788787002	918.111830776351	1487.645994603096	546.185772736812	1038.374679114633	935.637424895099	688.848669084079	993.715162996380	955.095426170812	416.459695851042	1039.871123387413	722.374843344150	654.988933800941	939.478913681504	621.328971267563	714.195321161901	998.943304509423	561.981177346342	630.017838966749	979.238365083517	475.528418061306	630.904367832955	1069.558312534902	758.540458286075	442.768440053531	1005.599354246672	632.226207603124	370.408716246670	1107.638572442708	570.468223898949	429.679552472785	1127.070660010530	504.545580433065	428.336345266789	1109.884546042897	433.118178198062	416.684078356104	1039.824793578611	306.759007720314	363.246421345073	1122.352190961705	203.992323925926	418.254404827345	939.327849249052	390.485848352918	635.124283814159	854.057097744736	294.612715124742	694.190702362219	881.181874830244	198.756891779924	624.744481793696	728.020448819713	43.393475692419	583.432033253929	898.701623386430	96.692582180064	629.953821757380	806.581472971577	36.556649068053	662.556843947183	1015.318980410221	42.014849593280	664.940293448983	1025.923219520628	36.911720973216	453.840575795850	1100.104070589157	36.500685536803	373.532996815043	1179.751746764699	102.759596138489	398.482737419400	1309.219604042935	57.790055306630	370.663844903831	777.848857765680	1093.380906467447	310.264000311135	783.562678652745	831.725332467058	330.803411977586	1187.194804030781	1181.872587755296	840.422216150716	1407.959900430730	1294.015388892874	781.784497935382	
129	30.159714285714	797.708703888954	991.804419795471	597.047731242567	908.841455637280	1421.206240092935	388.059590749133	1043.092544935556	1364.802903038126	530.004859516761	984.682344984824	1438.577775111750	713.059086487190	917.987914783192	1486.759859590520	543.357020487520	1039.184177199755	934.644982911055	685.961320000612	993.820138864694	954.558622403448	413.834143390463	1039.703339097874	721.054745665509	652.290099645987	939.039371408685	620.489341191808	711.947301339937	997.865900281698	560.695545108049	627.573999484578	977.600605094716	474.152007946600	628.654038669344	1070.936842971379	758.959357124735	441.160704817074	1007.846694687087	632.172511962457	369.046518035005	1109.958962746719	571.063472479057	428.465649703750	1128.471238208222	504.042336496285	427.359108984486	1110.955772228466	431.998741459779	415.794268282857	1039.298444067238	306.520645398628	362.187146142378	1119.564764495314	202.698984101904	418.209968493418	936.920366300557	389.367218562181	633.372269470587	850.900015575571	294.448614727318	693.016423687607	876.888571918695	198.169319728247	623.970903236552	722.489740028950	43.225812529384	583.422482731064	893.223606854505	96.606676542265	629.724500848343	801.042894763051	36.437956796026	662.536879246735	1009.817137051339	42.042928632209	664.955561520163	1020.013078940756	37.120716318842	453.886006566138	1094.188958465682	36.059240349970	373.499896738798	1174.756920414351	101.183125902470	398.801318807942	1303.771739691538	54.720639203838	370.807449343072	779.593641613064	1090.739893672057	307.843374331402	792.167371607549	829.215662227982	326.202339452553	1189.431287990803	1182.587064910842	836.521731963457	1408.831210578500	1296.832916777011	776.811539563928	
